<svg xmlns="http://www.w3.org/2000/svg" viewBox="0 0 457.34 160.43"><defs><style>.cls-1{fill:#209bd8;}.cls-2{font-size:36.31px;font-family:HelveticaNeueLTStd-Roman, Helvetica Neue LT Std;letter-spacing:-0.01em;}.cls-2,.cls-9{fill:#88d0ef;}.cls-3{letter-spacing:-0.08em;}.cls-4{letter-spacing:-0.01em;}.cls-5{font-size:37.08px;font-family:HelveticaNeueLTStd-Md, Helvetica Neue LT Std;letter-spacing:-0.01em;}.cls-5,.cls-8{fill:#fff;}.cls-6{letter-spacing:-0.07em;}.cls-7{letter-spacing:-0.02em;}</style></defs><title>Recurso 1</title><g id="Capa_2" data-name="Capa 2"><g id="Capa_1-2" data-name="Capa 1"><rect class="cls-1" width="457.34" height="160.43"/><text class="cls-2" transform="translate(132.26 130.68)">ES<tspan class="cls-3" x="44.99" y="0">P</tspan><tspan class="cls-4" x="65.47" y="0">AÑA</tspan></text><text class="cls-5" transform="translate(130.55 57.22)">ALDEAS <tspan x="0" y="36.17">IN</tspan><tspan class="cls-6" x="35.97" y="36.17">F</tspan><tspan class="cls-7" x="55.36" y="36.17">ANTILES SOS</tspan></text><rect class="cls-1" width="457.34" height="160.43"/><path class="cls-8" d="M74.19,42.42V54A8.71,8.71,0,0,0,76,48.23a8.88,8.88,0,0,0-1.85-5.81M70.57,74.35a12.35,12.35,0,0,0-.81-5.87,9.19,9.19,0,0,0-3.59-4,9.19,9.19,0,0,0,.56,5.36,12.28,12.28,0,0,0,3.84,4.53m2.34-20V42.1a8.69,8.69,0,0,0-2.13,6.13,8.48,8.48,0,0,0,2.13,6.11m7.4,15.94a9.3,9.3,0,0,0,.51-5.36A9.12,9.12,0,0,0,77.28,69a12.34,12.34,0,0,0-.74,5.88,12.13,12.13,0,0,0,3.78-4.58m29.22-36.95C103.91,28.69,93.34,28,73.3,28s-30.47.72-36.1,5.36S31,46.51,31,61.88s.51,24,6.12,28.69S53.32,95.9,73.3,95.9s30.62-.68,36.25-5.33,6.13-13.2,6.13-28.69-.51-23.89-6.13-28.55M86.83,38.15a3.94,3.94,0,0,1,2.42-1.51,4.7,4.7,0,0,1,5,.49c2.78,2.16,1,6.17,1,6.17s-.54,3.5-.73,4-1.25.9-1.25.9a7.41,7.41,0,0,1-1.3.18A3.77,3.77,0,0,1,90.28,48c-.31-.16-.36-.74-.36-.74a2,2,0,0,0-.24-.71,4.42,4.42,0,0,1-2.68-2c-.69-1.21-.27-2.84-.12-3.85a11.66,11.66,0,0,0-.06-2.52M50.62,37A5.57,5.57,0,0,1,58,39.74c.84,1.83.5,2.53-.69,3.11a3.69,3.69,0,0,1-6.8,2.86c-1.14.38-2,.24-2.67-1.27A5.62,5.62,0,0,1,50.62,37m59.36,46H87.33l-.15.53s-1.31,4-3.8,3.34c-2.3-.6-1.34-3.81-1.34-3.81v-.06H74.19v4.4H72.92v-4.4H65.74L66,84.14a2.39,2.39,0,0,1-1.32,2.73c-1.85.77-2.91-1.79-2.91-1.79s-.41-.87-.91-2H36.64V81.79H60.32c-.17-.46-.35-.93-.52-1.38-.74-2.16-1.73-5.91-1.93-6S56.2,74.23,54.5,74s-2.85-.75-3.06-.7c-.48.11-4.08,4.78-6.43,5.26S40.18,76,40.18,76l-2.91-3.8s-1.11-1.49-.28-2.32a1.52,1.52,0,0,1,2-.26s3.93,2.55,4.36,2.82.42,0,.42,0a12.69,12.69,0,0,0,1-1c.22-.28,0-.44,0-.44s-1.94-1.93-2.7-2.71S42,66.73,42,66.73l5.75-11.48-7.54,1.59s-1.44.36-1.77-.61,1.12-1.76,1.12-1.76l10-5.86a2.6,2.6,0,0,1,.64-.33,1.4,1.4,0,0,1,.59.19,5.47,5.47,0,0,0,3.29,1,4.53,4.53,0,0,0,3-1.21,1.38,1.38,0,0,1,.61-.32c.35-.05,1.2.86,1.2.86l8.85,9.81s1,1.05.23,2-2-.06-2-.06-5.59-3.34-5.79-3.4-.15.23-.15.23l5.48,24.42h7.46V56.1c-.54-.37-3.46-2.57-3.46-7.87,0-5.71,3.46-7.92,3.6-8a.72.72,0,0,1,.72,0c.14.1,3.61,2.31,3.61,8,0,4.67-2.28,6.94-3.19,7.66V81.79h8.12l3.32-15.86s1.89-8.95,1.79-9-6.77,4.26-6.77,4.26a1.34,1.34,0,0,1-1.88,0c-1-.94.43-2.19.43-2.19l8.42-9.81a1,1,0,0,1,.66-.33c.5,0,.55.37.55.37a18.67,18.67,0,0,0,1.06,2.39,13.35,13.35,0,0,0,1.39-1.33s.64-.64,1-.68a.54.54,0,0,1,.53.26l1.37,2s.33.46.42.44.2-.22.2-.22l1.59-3a3,3,0,0,1,.66-.94c.34-.25,1,.2,1,.2L107.6,54a1.64,1.64,0,0,1,1,1.88c-.43,1.46-2.64.7-2.64.7s-6.59-1.38-6.68-1.28.09.33.09.33,5.18,11.74,5.14,12.46a1.55,1.55,0,0,1-.68,1A11.33,11.33,0,0,0,102,70.37a.47.47,0,0,0,.12.36,7.5,7.5,0,0,0,1.17,1c.25.06.7-.25.7-.25l3-1.61s1.42-1.15,2.53-.06-.39,2.41-.39,2.41l-3,3.34s-1.72,2.58-3.44,2.75a5,5,0,0,1-3.48-1.4S94,71.86,93.94,71.74s-.21.06-.21.06a9.71,9.71,0,0,1-.8,1.69,1.66,1.66,0,0,1-.69.31s-2.15.31-2.26.38-.18.51-.18.51l-2.08,7.09H110ZM70.92,68a14.13,14.13,0,0,1,.77,7.63.62.62,0,0,1-.36.46.7.7,0,0,1-.59,0,14.17,14.17,0,0,1-5.17-5.69,10.37,10.37,0,0,1-.42-7,.61.61,0,0,1,.35-.37.56.56,0,0,1,.5,0,10.38,10.38,0,0,1,4.92,5M81,63.37a.64.64,0,0,1,.51,0,.67.67,0,0,1,.35.38,10.43,10.43,0,0,1-.36,7,14.19,14.19,0,0,1-5.09,5.76.66.66,0,0,1-.58,0,.64.64,0,0,1-.37-.46,14.07,14.07,0,0,1,.66-7.64A10.45,10.45,0,0,1,81,63.37"/><path class="cls-9" d="M135.09,104.75H153v2.91H138.54v8.24H152v2.91H138.54v9h14.56v2.91h-18Z"/><path class="cls-9" d="M171.91,112.34c-.4-3.7-2.87-5.3-6.43-5.3-2.91,0-5.81,1.05-5.81,4.43,0,3.2,4.14,3.67,8.32,4.61s8.28,2.4,8.28,7.48c0,5.52-5.41,7.74-10.13,7.74-5.81,0-10.71-2.83-10.71-9.15h3.27c0,4.36,3.63,6.25,7.55,6.25,3.12,0,6.57-1,6.57-4.72,0-3.56-4.14-4.18-8.28-5.08s-8.32-2.11-8.32-6.86c0-5.27,4.69-7.59,9.41-7.59,5.3,0,9.33,2.51,9.55,8.21Z"/><path class="cls-9" d="M180.08,104.75h11.37c5.16,0,8,2.87,8,7.66s-2.8,7.7-8,7.66h-7.92v10.6h-3.45Zm3.45,12.42h6.75c3.89,0,5.67-1.67,5.67-4.76s-1.78-4.76-5.67-4.76h-6.75Z"/><path class="cls-9" d="M207.61,104.75h3.81l10.13,25.93h-3.81l-2.83-7.81h-11L201,130.68h-3.56ZM205,120h8.79l-4.32-12.09h-.07Z"/><path class="cls-9" d="M223.69,104.75h3.67l13.65,21h.07v-21h3.27v25.93h-3.78L227,109.87H227v20.81h-3.27Zm16.63-6.32a6.84,6.84,0,0,1-1.13,2.91,3.57,3.57,0,0,1-2.87,1.13,7.6,7.6,0,0,1-2.4-.73,8.35,8.35,0,0,0-2.43-.69c-.8,0-1.82.62-1.74,1.53h-1.89c.58-2.14,1.53-4,3.81-4a6.89,6.89,0,0,1,2.69.73,6.45,6.45,0,0,0,2.4.73c.94,0,1.45-.87,1.67-1.6Z"/><path class="cls-9" d="M256.62,104.75h3.81l10.13,25.93h-3.81l-2.83-7.81H253L250,130.68h-3.56ZM254,120h8.79l-4.32-12.09h-.07Z"/><path class="cls-8" d="M140.45,30.75h4.93l10.2,26.47h-5l-2.48-7H137.56l-2.48,7h-4.78Zm-1.63,15.94h8.08l-4-11.38h-.11Z"/><path class="cls-8" d="M157.55,30.75h4.63V53.22h13.46v4H157.55Z"/><path class="cls-8" d="M178.28,30.75h11c8.16,0,11.68,5.93,11.68,13.24s-3.52,13.24-11.68,13.24h-11Zm4.63,22.69h4.56c7.27,0,8.82-4.15,8.82-9.46s-1.56-9.46-8.82-9.46h-4.56Z"/><path class="cls-8" d="M204.5,30.75h19.06v4H209.13v6.93h13.35v3.78H209.13v7.75h14.68v4H204.5Z"/><path class="cls-8" d="M234.38,30.75h4.93l10.2,26.47h-5l-2.48-7H231.49l-2.48,7h-4.78Zm-1.63,15.94h8.08l-4-11.38h-.11Z"/><path class="cls-8" d="M254.52,48.4c0,4.08,3,5.67,6.71,5.67,4.08,0,5.6-2,5.6-4a3.15,3.15,0,0,0-2.19-3.26c-1.85-.7-4.26-1.19-7.9-2.19-4.52-1.22-5.86-4-5.86-6.71,0-5.3,4.89-7.79,9.68-7.79,5.52,0,10.16,2.93,10.16,8.45h-4.63c-.22-3.41-2.52-4.67-5.71-4.67-2.15,0-4.86.78-4.86,3.45,0,1.85,1.26,2.89,3.15,3.41.41.11,6.27,1.63,7.64,2a7,7,0,0,1,5.15,6.75c0,5.93-5.27,8.31-10.53,8.31-6,0-10.94-2.89-11-9.46Z"/><path class="cls-8" d="M133.37,66.92H138V93.39h-4.63Z"/><path class="cls-8" d="M142.94,66.92h4.89l12.09,19.5H160V66.92h4.41V93.39h-4.89L147.46,73.92h-.11V93.39h-4.41Z"/><path class="cls-8" d="M169.34,66.92h18.28v4H174v6.93h12v3.78H174V93.39h-4.63Z"/><path class="cls-8" d="M195.82,66.92h4.93l10.2,26.47h-5l-2.48-7H192.93l-2.48,7h-4.78Zm-1.63,15.94h8.08l-4-11.38h-.11Z"/><path class="cls-8" d="M212.73,66.92h4.89l12.09,19.5h.07V66.92h4.41V93.39H229.3L217.25,73.92h-.11V93.39h-4.41Z"/><path class="cls-8" d="M236.61,66.92H258v4h-8.42V93.39H245V70.92h-8.38Z"/><path class="cls-8" d="M260.57,66.92h4.63V93.39h-4.63Z"/><path class="cls-8" d="M270.32,66.92H275V89.39h13.46v4H270.32Z"/><path class="cls-8" d="M291,66.92h19.06v4H295.68v6.93H309v3.78H295.68v7.75h14.68v4H291Z"/><path class="cls-8" d="M316.89,84.57c0,4.08,3,5.67,6.71,5.67,4.08,0,5.6-2,5.6-4A3.15,3.15,0,0,0,327,83c-1.85-.7-4.26-1.19-7.9-2.19-4.52-1.22-5.86-4-5.86-6.71,0-5.3,4.89-7.79,9.68-7.79,5.52,0,10.16,2.93,10.16,8.45h-4.63c-.22-3.41-2.52-4.67-5.71-4.67-2.15,0-4.86.78-4.86,3.45,0,1.85,1.26,2.89,3.15,3.41.41.11,6.27,1.63,7.64,2a7,7,0,0,1,5.15,6.75c0,5.93-5.27,8.31-10.53,8.31-6,0-10.94-2.89-11-9.46Z"/><path class="cls-8" d="M350.12,84.57c0,4.08,3,5.67,6.71,5.67,4.08,0,5.6-2,5.6-4A3.15,3.15,0,0,0,360.24,83c-1.85-.7-4.26-1.19-7.9-2.19-4.52-1.22-5.86-4-5.86-6.71,0-5.3,4.89-7.79,9.68-7.79,5.52,0,10.16,2.93,10.16,8.45h-4.63c-.22-3.41-2.52-4.67-5.71-4.67-2.15,0-4.86.78-4.86,3.45,0,1.85,1.26,2.89,3.15,3.41.41.11,6.27,1.63,7.64,2a7,7,0,0,1,5.15,6.75c0,5.93-5.27,8.31-10.53,8.31-6,0-10.94-2.89-11-9.46Z"/><path class="cls-8" d="M394.51,80.15c0,7.56-4.75,13.87-12.68,13.87s-12.68-6.3-12.68-13.87,4.75-13.87,12.68-13.87S394.51,72.59,394.51,80.15Zm-20.73,0c0,5.08,2.37,10.09,8,10.09s8-5,8-10.09-2.37-10.09-8-10.09S373.78,75.07,373.78,80.15Z"/><path class="cls-8" d="M401.22,84.57c0,4.08,3,5.67,6.71,5.67,4.08,0,5.6-2,5.6-4A3.15,3.15,0,0,0,411.34,83c-1.85-.7-4.26-1.19-7.9-2.19-4.52-1.22-5.86-4-5.86-6.71,0-5.3,4.89-7.79,9.68-7.79,5.52,0,10.16,2.93,10.16,8.45h-4.63c-.22-3.41-2.52-4.67-5.71-4.67-2.15,0-4.86.78-4.86,3.45,0,1.85,1.26,2.89,3.15,3.41.41.11,6.27,1.63,7.64,2a7,7,0,0,1,5.15,6.75c0,5.93-5.27,8.31-10.53,8.31-6,0-10.94-2.89-11-9.46Z"/></g></g></svg>